<svg id="Layer_1" data-name="Layer 1" xmlns="http://www.w3.org/2000/svg" viewBox="0 0 640 100"><defs><style>.cls-1{fill:#fff;}</style></defs><title>store_logo_white</title><path class="cls-1" d="M348.7,50.11C348.7,35.4,359.91,25,374.75,25S400.8,35.4,400.8,50.11c0,14.43-11.2,25.07-26.05,25.07S348.7,64.68,348.7,50.11Zm37.4,0c0-6.86-4.34-11.91-11.21-11.91s-11.2,5-11.2,11.91S368,62,374.89,62,386.1,57.11,386.1,50.11ZM338.9,38.48a13.91,13.91,0,0,1,1.4,6.31c0,5.32-2.8,10.22-7.29,14,6.17,3,9.81,10.09,9.81,16.81,0,12.61-10.23,21-25.77,21s-25.77-8.26-25.77-21c0-6.86,3.64-13.72,9.8-16.81-4.62-3.78-7.28-8.68-7.28-14,0-11.07,8.68-19.19,22.41-19.19,8.12,0,10.5,1.4,15.12,1.4,3.09,0,5.19-.42,9-2.38a6.43,6.43,0,0,1,3.08-1c1.82,0,2.8,1.82,2.8,4.06C346.32,32.6,344.08,36.66,338.9,38.48Zm-10.51,36.7c0-5.6-4.34-9.52-11.2-9.52S306,69.44,306,75.18c0,5.32,4.76,9.52,11.21,9.52S328.39,80.5,328.39,75.18ZM308.08,45.63a8.77,8.77,0,0,0,9,8.54,8.67,8.67,0,0,0,9-8.54c0-5-3.64-8.55-9-8.55S308.08,40.45,308.08,45.63Zm-23.53,5.46V68.6c0,3.36-1.26,4.76-4.9,4.76h-4.9c-3.64,0-4.9-1.4-4.9-4.76V51.51c0-4.34-.7-7.42-2.24-9.38a9.06,9.06,0,0,0-7.43-3.22,10,10,0,0,0-7.7,3.22c-1.68,2-2.8,5-2.8,9.24V68.46c0,3.5-1.4,4.76-4.9,4.76h-4.91c-3.36,0-4.9-1.26-4.9-4.76V29.24c0-2.24,1.12-3.22,2.8-3.22,2.52,0,6,2.1,8.69,6.16a20.82,20.82,0,0,1,15.82-7c7.15,0,12.89,2.52,16.67,6.72S284.55,41.85,284.55,51.09Zm-76.47-39.5a8.08,8.08,0,0,1,8.4-8,8.25,8.25,0,0,1,8.41,8c0,4.35-3.92,8-8.41,8A8.17,8.17,0,0,1,208.08,11.59Zm1,57V31.76c0-3.36,1.26-4.76,4.9-4.76h4.91c3.64,0,4.9,1.4,4.9,4.76V68.6c0,3.36-1.26,4.76-4.9,4.76H214C210.32,73.36,209.06,72,209.06,68.6Zm-25.91,0V22.38c0-11.63,6.58-18.21,11.91-18.21,1.68,0,2.8,1.12,2.8,3.22V68.46c0,3.5-1.4,4.76-4.91,4.76h-4.9C184.69,73.36,183.15,72.1,183.15,68.6ZM122.64,50.11C122.64,35.4,133.85,25,148.7,25s26.05,10.36,26.05,25.07c0,14.43-11.21,25.07-26.05,25.07S122.64,64.68,122.64,50.11Zm37.26,0c0-6.86-4.34-11.91-11.2-11.91s-11.21,5-11.21,11.91S141.83,62,148.7,62,159.9,57.11,159.9,50.11ZM115.08,31.76V71c0,2.24-1.12,3.22-2.8,3.22-2.52,0-6-2.1-8.54-6A20,20,0,0,1,88.19,75a22.24,22.24,0,0,1-15.13-5.6c-4.34-4.2-6.72-10.65-6.72-19.89V31.76c0-3.36,1.26-4.76,4.9-4.76h4.9c3.65,0,4.91,1.4,4.91,4.76V48.29c0,5.6,1,8.54,2.8,10.5a8.55,8.55,0,0,0,6.58,2.52,9.26,9.26,0,0,0,7-2.94c1.82-2,2.8-5,2.8-9.8V31.76c0-3.5,1.4-4.76,4.91-4.76H110C113.54,26.86,115.08,28.26,115.08,31.76ZM56.26,7.39V71c0,2.24-1.13,3.22-2.81,3.22-2.52,0-6-2.1-8.54-5.88-3.08,3.64-9.38,6.86-16.67,6.86-14.56,0-24.37-10.64-24.37-25.07C3.87,36,13.82,25,28.24,25A23.89,23.89,0,0,1,41.69,29.1V22.38c0-11.63,6.58-18.21,11.9-18.21C55.27,4.17,56.26,5.29,56.26,7.39ZM41.69,50.11c0-7.14-5-11.91-11.35-11.91S18.86,43,18.86,50.11,23.9,62,30.34,62,41.69,57.39,41.69,50.11Z"/><path class="cls-1" d="M449.48,74.14c12.27,0,18.84-6,18.84-15.06,0-7.53-4.25-12.07-13.91-13.13l-4.83-.48c-6.95-.68-9.07-2.61-9.07-6.28s3-6.37,8.78-6.37a24.17,24.17,0,0,1,10.24,2.41,6.75,6.75,0,0,0,2.89.77,3.45,3.45,0,0,0,3.48-3.47c0-1.45-.77-2.51-2.41-3.38a28.32,28.32,0,0,0-13.81-3.38c-10.82,0-17.09,5.31-17.09,14.1,0,7.43,4.73,12.07,13.81,13l4.82.48c7.34.78,9.08,2.71,9.08,6.57,0,4-3.47,7-10.14,7-5.21,0-9.17-1.83-12.94-4.05a5,5,0,0,0-2.7-.87,3.69,3.69,0,0,0-3.77,3.67A4,4,0,0,0,432.69,69,29.66,29.66,0,0,0,449.48,74.14Zm46.57-.58c2.9,0,4.34-1.54,4.34-3.76a3.6,3.6,0,0,0-4-3.77c-4.92,0-6.17-1.45-6.17-6.37V34a.51.51,0,0,1,.58-.58h6.08a3.15,3.15,0,0,0,3.47-3.29,3.14,3.14,0,0,0-3.47-3.28h-6.08a.51.51,0,0,1-.58-.58V16.11a4,4,0,0,0-4.06-4.34c-2.32,0-4.05,1.64-4.05,4.34V26.25a.51.51,0,0,1-.58.58H479a3.29,3.29,0,1,0,0,6.57h2.61a.51.51,0,0,1,.58.58V60c0,9.66,3.47,13.61,12.93,13.61Zm32.87.58c9,0,15.73-4.63,18.24-12.45,1.07-3.19,1.55-6.38,1.55-11.78s-.48-8.5-1.55-11.69c-2.51-7.91-9.27-12.45-18.24-12.45s-15.75,4.54-18.26,12.45c-1.06,3.19-1.54,6.38-1.54,11.69s.48,8.59,1.54,11.78C513.17,69.51,519.93,74.14,528.92,74.14Zm0-7.53c-5.12,0-8.89-2.61-10.43-7.24-.78-2.51-1.07-5-1.07-9.46s.29-6.86,1.07-9.37c1.54-4.63,5.31-7.24,10.43-7.24s8.88,2.61,10.42,7.24c.78,2.51,1.07,4.93,1.07,9.37s-.29,7-1.07,9.46C537.8,64,534,66.61,528.92,66.61Zm36.84,7a4,4,0,0,0,4.06-4.34V46.82c0-7.73,2.8-13.52,9.75-13.52a14.1,14.1,0,0,1,5.31,1.16,5.63,5.63,0,0,0,2,.48,3.9,3.9,0,0,0,4.05-4,3.83,3.83,0,0,0-2.32-3.48,13.38,13.38,0,0,0-6.85-1.64c-5.7,0-9.94,2.89-11.88,7.05h-.09V30.69a4.06,4.06,0,1,0-8.11,0V69.22A4,4,0,0,0,565.76,73.56Zm51,.58a23.84,23.84,0,0,0,16.61-6.37,4,4,0,0,0,1.25-2.9,3.3,3.3,0,0,0-3.38-3.38,4.39,4.39,0,0,0-2.79,1.16c-3.48,2.61-6.57,4-11.11,4-5.7,0-9.95-2.7-11.68-8a17.1,17.1,0,0,1-.77-5.6.51.51,0,0,1,.57-.58h27.13a3,3,0,0,0,3.19-3.09,34.13,34.13,0,0,0-1.54-11.2c-2.51-7.92-9.08-12.36-18.15-12.36-8.79,0-15.46,4.44-18.06,12.45-1,2.9-1.45,6.18-1.45,11.69a35.2,35.2,0,0,0,1.54,11.68C600.68,69.7,607.15,74.14,616.71,74.14ZM605.41,46a.51.51,0,0,1-.57-.58,16.28,16.28,0,0,1,.67-5.21c1.55-4.64,5.41-7.25,10.62-7.25s9.08,2.61,10.62,7.25a16,16,0,0,1,.68,5.21.51.51,0,0,1-.58.58Z"/></svg>